<?xml version="1.0" encoding="utf-8"?>
<!-- Generator: Adobe Illustrator 23.0.1, SVG Export Plug-In . SVG Version: 6.00 Build 0)  -->
<svg version="1.1" id="Layer_1" xmlns="http://www.w3.org/2000/svg" xmlns:xlink="http://www.w3.org/1999/xlink" x="0px" y="0px"
	 viewBox="0 0 32 32" style="enable-background:new 0 0 32 32;" xml:space="preserve">
<style type="text/css">
	.st0{fill:#006BB4;}
</style>
<g>
	<path class="st0" d="M21.56,7.56v8.64c0,1.44-1.15,2.6-2.58,2.6c-0.78,0-1.48-0.35-1.94-0.89c-0.19-0.22-0.35-0.47-0.45-0.74
		c-0.12-0.3-0.19-0.63-0.19-0.97V8.43c0-0.18,0.02-0.35,0.07-0.5c0.22-0.72,0.87-1.23,1.65-1.23c0.89,0,1.63,0.68,1.72,1.56
		c0,0.05,0.01,0.11,0.01,0.17v7.77c0,0.48-0.38,0.87-0.86,0.87c-0.48,0-0.86-0.38-0.86-0.87V9.29h-0.86v6.91
		c0,0.36,0.11,0.7,0.29,0.97c0.26,0.39,0.68,0.67,1.17,0.74c0.09,0.02,0.17,0.02,0.26,0.02c0.09,0,0.18-0.01,0.26-0.02
		c0.09-0.01,0.17-0.03,0.25-0.05c0.7-0.22,1.21-0.87,1.21-1.65V8.43c-0.01-1.44-1.16-2.6-2.59-2.6c-1.26,0-2.31,0.9-2.54,2.1h-5.27
		c-0.41,0-0.74,0.33-0.74,0.75v16.75c0,0.41,0.33,0.74,0.74,0.74h11.37c0.41,0,0.74-0.33,0.74-0.74V7.57L21.56,7.56L21.56,7.56z
		 M21.87,24.71c0,0.37-0.3,0.67-0.67,0.67H10.8c-0.37,0-0.67-0.3-0.67-0.67V9.39c0-0.38,0.3-0.68,0.67-0.68h4.73v3.84H12.5v0.74
		h3.02v1.57H12.5v0.74h3.02v1.04c0.02,0.19,0.06,0.36,0.12,0.53H12.5v0.74h3.45c0.41,0.73,1.08,1.29,1.88,1.57H12.5v0.74h6.99v-0.59
		c0.99-0.14,1.85-0.72,2.37-1.51L21.87,24.71L21.87,24.71z M12.51,21.78h6.98v0.74h-6.99L12.51,21.78z"/>
	<path class="st0" d="M26.9-0.05H5.6c-1.4,0-2.5,1.2-2.5,2.6v26.9c0,1.4,1.1,2.6,2.5,2.6h20.7c1.4,0,2.6-1.2,2.6-2.6V1.95
		C28.9,0.85,28-0.05,26.9-0.05z M26.7,17.75v11.6c0,0.2-0.2,0.4-0.4,0.4H5.6c-0.2,0-0.4-0.2-0.4-0.4V2.55c0-0.2,0.2-0.4,0.4-0.4
		h15.6c0.4,0,1.2,0.3,1.4,0.7l0.5,0.6c0.3,0.4,0.6,0.8,1,1.1c0.4,0.5,0.9,1,1.3,1.5l0.6,0.7c0.3,0.4,0.6,1.2,0.6,1.7
		C26.7,8.35,26.7,17.75,26.7,17.75z"/>
</g>
</svg>
