<svg width="18" height="19" viewBox="0 0 18 19" fill="none" xmlns="http://www.w3.org/2000/svg">
    <path fill-rule="evenodd" clip-rule="evenodd" d="M13.1734 8.20057V4.48743C13.1734 2.83357 12.056 2 10.3305 2H7.67042C5.94444 2 4.82569 2.83271 4.82569 4.48743V8.20057H3V17H15V8.20057H13.1734ZM6.65222 4.5373C6.65222 3.98572 7.094 3.54944 7.67037 3.54944H10.3304C10.905 3.54944 11.3477 3.98572 11.3477 4.5373V8.20072H6.65222V4.5373ZM9.9923 14.9987H7.90503L8.35843 12.8241C8.08523 12.6433 7.90503 12.342 7.90503 11.9987C7.90503 11.4471 8.37229 10.9993 8.94866 10.9993C9.52503 10.9993 9.9923 11.4471 9.9923 11.9987C9.9923 12.342 9.81254 12.6433 9.53755 12.8241L9.9923 14.9987Z" fill="#523CC0"/>
</svg>
