<svg xmlns="http://www.w3.org/2000/svg" width="23" height="23" fill="none"><path fill="url(#a)" d="M2 13.588v5.307c0 .326.275.59.613.59h2.186V13H2.613a.603.603 0 0 0-.613.588Z"/><path fill="url(#b)" d="M20.055 15.738c-.124 0-.244.02-.358.06l-6.602 1.973 1.41-.767c.392-.213.754-.453.754-.76 0-.535-.452-.97-1.007-.97h-2.546a.99.99 0 0 1-.47-.12l-2.079-1.126a2.261 2.261 0 0 0-1.072-.27H5.146v4.981c.548.04 1.25.192 1.717.462l2.056 1.19c.69.399 1.482.61 2.289.61.64 0 1.26-.13 1.84-.385l7.35-3.118a.936.936 0 0 0 .546-.54.92.92 0 0 0-.073-.784c-.15-.269-.464-.436-.817-.436Z"/><rect width="12" height="2" x="9" y="10" fill="url(#c)" rx="1"/><rect width="12" height="2" x="9" y="2" fill="url(#d)" rx="1"/><rect width="12" height="2" x="9" y="6" fill="url(#e)" rx="1"/><circle cx="7" cy="3" r="1" fill="url(#f)"/><circle cx="7" cy="7" r="1" fill="url(#g)"/><circle cx="7" cy="11" r="1" fill="url(#h)"/><defs><linearGradient id="a" x1="3.4" x2="3.4" y1="13" y2="19.485" gradientUnits="userSpaceOnUse"><stop stop-color="#7D7AFD"/><stop offset="1" stop-color="#4542EC"/></linearGradient><linearGradient id="b" x1="13.073" x2="13.073" y1="13.758" y2="21.001" gradientUnits="userSpaceOnUse"><stop stop-color="#FFD0A5"/><stop offset="1" stop-color="#FFAA5B"/></linearGradient><linearGradient id="c" x1="15" x2="15" y1="10" y2="12" gradientUnits="userSpaceOnUse"><stop stop-color="#D1DBFF"/><stop offset="1" stop-color="#B3C2F4"/></linearGradient><linearGradient id="d" x1="15" x2="15" y1="2" y2="4" gradientUnits="userSpaceOnUse"><stop stop-color="#D1DBFF"/><stop offset="1" stop-color="#B3C2F4"/></linearGradient><linearGradient id="e" x1="15" x2="15" y1="6" y2="8" gradientUnits="userSpaceOnUse"><stop stop-color="#D1DBFF"/><stop offset="1" stop-color="#B3C2F4"/></linearGradient><linearGradient id="f" x1="7" x2="7" y1="2" y2="4" gradientUnits="userSpaceOnUse"><stop stop-color="#D1DBFF"/><stop offset="1" stop-color="#B4C2F5"/></linearGradient><linearGradient id="g" x1="7" x2="7" y1="6" y2="8" gradientUnits="userSpaceOnUse"><stop stop-color="#D1DBFF"/><stop offset="1" stop-color="#B4C2F5"/></linearGradient><linearGradient id="h" x1="7" x2="7" y1="10" y2="12" gradientUnits="userSpaceOnUse"><stop stop-color="#D1DBFF"/><stop offset="1" stop-color="#B4C2F5"/></linearGradient></defs></svg>