<svg width="20" height="17" viewBox="0 0 20 17" fill="none" xmlns="http://www.w3.org/2000/svg">
    <g filter="url(#filter0_i_7422_1384)">
        <path d="M8.79572 0.5C9.18062 -0.166666 10.1429 -0.166667 10.5278 0.5L19.188 15.5C19.5729 16.1667 19.0918 17 18.322 17H1.00149C0.231691 17 -0.249434 16.1667 0.135467 15.5L8.79572 0.5Z" fill="url(#paint0_linear_7422_1384)"/>
    </g>
    <path d="M10.3789 11.7344H9.08252L8.73096 4.29297H10.7305L10.3789 11.7344ZM8.64307 14.0928C8.64307 13.6924 8.74561 13.4116 8.95068 13.2505C9.16064 13.0845 9.41699 13.0015 9.71973 13.0015C10.0176 13.0015 10.2715 13.0845 10.4814 13.2505C10.6914 13.4116 10.7964 13.6924 10.7964 14.0928C10.7964 14.4834 10.6914 14.7666 10.4814 14.9424C10.2715 15.1133 10.0176 15.1987 9.71973 15.1987C9.41699 15.1987 9.16064 15.1133 8.95068 14.9424C8.74561 14.7666 8.64307 14.4834 8.64307 14.0928Z" fill="black"/>
    <defs>
        <filter id="filter0_i_7422_1384" x="0" y="0" width="19.3237" height="17.5" filterUnits="userSpaceOnUse" color-interpolation-filters="sRGB">
            <feFlood flood-opacity="0" result="BackgroundImageFix"/>
            <feBlend mode="normal" in="SourceGraphic" in2="BackgroundImageFix" result="shape"/>
            <feColorMatrix in="SourceAlpha" type="matrix" values="0 0 0 0 0 0 0 0 0 0 0 0 0 0 0 0 0 0 127 0" result="hardAlpha"/>
            <feOffset dy="0.5"/>
            <feGaussianBlur stdDeviation="0.25"/>
            <feComposite in2="hardAlpha" operator="arithmetic" k2="-1" k3="1"/>
            <feColorMatrix type="matrix" values="0 0 0 0 1 0 0 0 0 0.72549 0 0 0 0 0.0117647 0 0 0 1 0"/>
            <feBlend mode="normal" in2="shape" result="effect1_innerShadow_7422_1384"/>
        </filter>
        <linearGradient id="paint0_linear_7422_1384" x1="9.66186" y1="-2.11127e-08" x2="9.66186" y2="17" gradientUnits="userSpaceOnUse">
            <stop stop-color="#FFD32A"/>
            <stop offset="0.515" stop-color="#FFD41F"/>
            <stop offset="1" stop-color="#FFC600"/>
        </linearGradient>
    </defs>
</svg>
