<svg width="20" height="21" viewBox="0 0 20 21" fill="none" xmlns="http://www.w3.org/2000/svg">
    <path fill-rule="evenodd" clip-rule="evenodd" d="M9.99992 18.1006C14.1973 18.1006 17.5999 14.698 17.5999 10.5007C17.5999 6.30329 14.1973 2.90065 9.99992 2.90065C5.80255 2.90065 2.39992 6.30329 2.39992 10.5007C2.39992 14.698 5.80255 18.1006 9.99992 18.1006ZM9.99992 19.1673C14.7864 19.1673 18.6666 15.2871 18.6666 10.5007C18.6666 5.71418 14.7864 1.83398 9.99992 1.83398C5.21345 1.83398 1.33325 5.71418 1.33325 10.5007C1.33325 15.2871 5.21345 19.1673 9.99992 19.1673Z" fill="#F26F5D"/>
    <path d="M10.4968 8.26912C10.2667 8.26912 10.0715 8.18382 9.91119 8.01321C9.75084 7.84261 9.67067 7.63491 9.67067 7.39013C9.67067 7.14534 9.75084 6.93765 9.91119 6.76704C10.0715 6.58901 10.2667 6.5 10.4968 6.5C10.7269 6.5 10.9221 6.58901 11.0824 6.76704C11.2498 6.93765 11.3334 7.14534 11.3334 7.39013C11.3334 7.63491 11.2498 7.84261 11.0824 8.01321C10.9221 8.18382 10.7269 8.26912 10.4968 8.26912ZM9.7857 14.5C9.45106 14.5 9.17917 14.3887 8.97002 14.1662C8.76784 13.9437 8.66675 13.6099 8.66675 13.1648C8.66675 12.9794 8.69463 12.7383 8.75041 12.4416L9.46152 8.86996H10.9674L10.2145 12.653C10.1866 12.7643 10.1726 12.8829 10.1726 13.009C10.1726 13.1574 10.204 13.265 10.2667 13.3317C10.3365 13.3911 10.448 13.4207 10.6014 13.4207C10.7269 13.4207 10.8384 13.3985 10.936 13.354C10.9081 13.7248 10.7827 14.0104 10.5596 14.2107C10.3434 14.4036 10.0855 14.5 9.7857 14.5Z" fill="#F26F5D"/>
</svg>
