<svg width="20" height="20" viewBox="0 0 20 20" fill="none" xmlns="http://www.w3.org/2000/svg">
    <path fill-rule="evenodd" clip-rule="evenodd" d="M9.99992 17.6006C14.1973 17.6006 17.5999 14.198 17.5999 10.0007C17.5999 5.80329 14.1973 2.40065 9.99992 2.40065C5.80255 2.40065 2.39992 5.80329 2.39992 10.0007C2.39992 14.198 5.80255 17.6006 9.99992 17.6006ZM9.99992 18.6673C14.7864 18.6673 18.6666 14.7871 18.6666 10.0007C18.6666 5.21418 14.7864 1.33398 9.99992 1.33398C5.21345 1.33398 1.33325 5.21418 1.33325 10.0007C1.33325 14.7871 5.21345 18.6673 9.99992 18.6673Z" fill="#A7C2E4"/>
    <path d="M10.4968 7.76912C10.2667 7.76912 10.0715 7.68382 9.91119 7.51321C9.75084 7.34261 9.67067 7.13491 9.67067 6.89013C9.67067 6.64534 9.75084 6.43765 9.91119 6.26704C10.0715 6.08901 10.2667 6 10.4968 6C10.7269 6 10.9221 6.08901 11.0824 6.26704C11.2498 6.43765 11.3334 6.64534 11.3334 6.89013C11.3334 7.13491 11.2498 7.34261 11.0824 7.51321C10.9221 7.68382 10.7269 7.76912 10.4968 7.76912ZM9.7857 14C9.45106 14 9.17917 13.8887 8.97002 13.6662C8.76784 13.4437 8.66675 13.1099 8.66675 12.6648C8.66675 12.4794 8.69463 12.2383 8.75041 11.9416L9.46152 8.36996H10.9674L10.2145 12.153C10.1866 12.2643 10.1726 12.3829 10.1726 12.509C10.1726 12.6574 10.204 12.765 10.2667 12.8317C10.3365 12.8911 10.448 12.9207 10.6014 12.9207C10.7269 12.9207 10.8384 12.8985 10.936 12.854C10.9081 13.2248 10.7827 13.5104 10.5596 13.7107C10.3434 13.9036 10.0855 14 9.7857 14Z" fill="#A7C2E4"/>
</svg>
