<svg width="20" height="20" viewBox="0 0 20 20" fill="none" xmlns="http://www.w3.org/2000/svg">
    <path fill-rule="evenodd" clip-rule="evenodd" d="M10.0002 17.6006C14.1975 17.6006 17.6002 14.198 17.6002 10.0007C17.6002 5.80329 14.1975 2.40065 10.0002 2.40065C5.8028 2.40065 2.40016 5.80329 2.40016 10.0007C2.40016 14.198 5.8028 17.6006 10.0002 17.6006ZM10.0002 18.6673C14.7866 18.6673 18.6668 14.7871 18.6668 10.0007C18.6668 5.21418 14.7866 1.33398 10.0002 1.33398C5.21369 1.33398 1.3335 5.21418 1.3335 10.0007C1.3335 14.7871 5.21369 18.6673 10.0002 18.6673Z" fill="#A1A1A1"/>
    <path d="M10.4966 7.76912C10.2665 7.76912 10.0713 7.68382 9.91095 7.51321C9.7506 7.34261 9.67043 7.13491 9.67043 6.89013C9.67043 6.64534 9.7506 6.43765 9.91095 6.26704C10.0713 6.08901 10.2665 6 10.4966 6C10.7266 6 10.9218 6.08901 11.0822 6.26704C11.2495 6.43765 11.3332 6.64534 11.3332 6.89013C11.3332 7.13491 11.2495 7.34261 11.0822 7.51321C10.9218 7.68382 10.7266 7.76912 10.4966 7.76912ZM9.78546 14C9.45082 14 9.17892 13.8887 8.96977 13.6662C8.76759 13.4437 8.6665 13.1099 8.6665 12.6648C8.6665 12.4794 8.69439 12.2383 8.75016 11.9416L9.46127 8.36996H10.9672L10.2142 12.153C10.1863 12.2643 10.1724 12.3829 10.1724 12.509C10.1724 12.6574 10.2038 12.765 10.2665 12.8317C10.3362 12.8911 10.4478 12.9207 10.6011 12.9207C10.7266 12.9207 10.8382 12.8985 10.9358 12.854C10.9079 13.2248 10.7824 13.5104 10.5593 13.7107C10.3432 13.9036 10.0852 14 9.78546 14Z" fill="#A1A1A1"/>
</svg>
