<svg width="60" height="60" viewBox="0 0 60 60" fill="none" xmlns="http://www.w3.org/2000/svg">
    <g clip-path="url(#clip0_5548_1794)">
        <path d="M1.38477 9.38478C1.38477 4.9665 4.96649 1.38477 9.38477 1.38477H51.4155C55.392 1.38477 58.6155 4.60832 58.6155 8.58477V50.6155C58.6155 55.0338 55.0338 58.6155 50.6155 58.6155H8.58477C4.60832 58.6155 1.38477 55.392 1.38477 51.4155V9.38478Z" fill="url(#paint0_linear_5548_1794)"/>
        <path d="M46.6883 0.817329C46.2931 0.42206 45.757 0.2 45.198 0.2H12.9231H8C3.69218 0.2 0.200001 3.69218 0.200001 8.00001V45.198C0.200001 45.757 0.422058 46.2931 0.817329 46.6883L13.3117 59.1827C13.7069 59.5779 14.243 59.8 14.802 59.8H52C56.3078 59.8 59.8 56.3078 59.8 52V47.0769V14.802C59.8 14.243 59.5779 13.7069 59.1827 13.3117L46.6883 0.817329Z" fill="url(#paint1_linear_5548_1794)" stroke="url(#paint2_linear_5548_1794)" stroke-width="0.4"/>
        <g filter="url(#filter0_d_5548_1794)">
            <path d="M45.999 30.4V25.2844C45.999 16.8624 38.8007 10 29.9663 10C21.1319 10 13.999 16.8624 13.999 25.2844V30.4C14.2608 30.2128 14.588 29.9633 14.8497 29.7138L15.7659 28.9028V25.2844C15.7659 17.7982 22.1135 11.7468 29.9663 11.7468C37.8191 11.7468 44.2322 17.7982 44.2322 25.2844V28.9028L45.1483 29.7138C45.4755 29.9633 45.7373 30.2128 45.999 30.4Z" fill="#6E63E2"/>
            <path d="M37.8134 48.8368C37.3696 48.8933 36.9276 48.6434 36.7565 48.2055C36.5544 47.6879 36.8079 47.1035 37.3225 46.9003C38.4176 46.4677 39.3873 45.8344 40.2045 45.018C41.8888 43.3349 42.8976 39.2426 43.0745 38.1909C43.1667 37.6426 43.6838 37.2734 44.2286 37.3659C44.7737 37.4587 45.1409 37.9784 45.0488 38.5267C44.8319 39.8164 43.6967 44.3673 41.6158 46.4466C40.6037 47.4579 39.4055 48.2412 38.0545 48.7747C37.975 48.8061 37.8942 48.8265 37.8134 48.8368Z" fill="#6E63E2"/>
            <path d="M37.2091 50H34.7925C33.6924 50 32.8008 49.1046 32.8008 48C32.8008 46.8954 33.6924 46 34.7925 46H37.2091C38.3091 46 39.2008 46.8954 39.2008 48C39.2008 49.1046 38.309 50 37.2091 50Z" fill="url(#paint3_linear_5548_1794)"/>
            <path d="M47.1992 22.3984L50.9472 23.8704C51.6047 24.1264 51.9992 24.7024 51.9992 25.4064V32.1904C51.9992 32.8304 51.6047 33.4704 50.9472 33.7264L47.1992 35.1984V22.3984Z" fill="url(#paint4_linear_5548_1794)"/>
            <path d="M42.961 19.1992H45.0367C46.2475 19.1992 47.1988 20.0407 47.1988 21.1116V36.4869C47.1988 37.5578 46.2475 38.3992 45.0367 38.3992H42.961C41.7502 38.3992 40.7988 37.5578 40.7988 36.4869V21.1116C40.7988 20.0407 41.8367 19.1992 42.961 19.1992Z" fill="url(#paint5_linear_5548_1794)"/>
            <path d="M12.7998 22.4004L9.05186 23.8724C8.39432 24.1284 7.9998 24.7044 7.9998 25.4084V32.1924C7.9998 32.8324 8.39432 33.4724 9.05186 33.7284L12.7998 35.2004V22.4004Z" fill="url(#paint6_linear_5548_1794)"/>
            <path d="M14.962 19.2012H17.0376C18.2485 19.2012 19.1998 20.0426 19.1998 21.1135V36.4888C19.1998 37.5597 18.2485 38.4012 17.0376 38.4012H14.962C13.7512 38.4012 12.7998 37.5597 12.7998 36.4888V21.1135C12.7998 20.0426 13.8376 19.2012 14.962 19.2012Z" fill="url(#paint7_linear_5548_1794)"/>
            <path d="M19.7671 27.8008L19.7699 27.6008L19.7671 27.8008C25.9462 27.8866 30.9599 32.7784 30.9988 38.7287C31.0207 42.062 29.5055 45.0555 27.0939 47.0877C26.7274 47.3964 26.7825 47.9625 27.1977 48.1998L27.1977 48.1998L29.3834 49.4484C29.5437 49.54 29.4999 49.7997 29.2772 49.7996L19.3812 49.7972C13.1793 49.685 8.19903 44.7983 8.19903 38.7997C8.19902 32.6772 13.3873 27.7121 19.7671 27.8008Z" fill="url(#paint8_linear_5548_1794)" stroke="url(#paint9_linear_5548_1794)" stroke-width="0.4"/>
            <g filter="url(#filter1_d_5548_1794)">
                <path d="M14.59 41.9016C13.1428 41.9016 11.9692 40.764 11.9692 39.2808C11.9692 37.7976 13.1428 36.66 14.59 36.66C16.0372 36.66 17.2108 37.7976 17.2108 39.2808C17.2108 40.764 16.0372 41.9016 14.59 41.9016ZM14.59 40.7784C15.4108 40.7784 16.0588 40.1808 16.0588 39.2808C16.0588 38.3808 15.4108 37.7832 14.59 37.7832C13.7692 37.7832 13.1212 38.3808 13.1212 39.2808C13.1212 40.1808 13.7692 40.7784 14.59 40.7784ZM20.9554 36.7608H22.1074V41.8008H21.2434L19.2994 39.0648V41.8008H18.1474V36.7608H19.0114L20.9554 39.4968V36.7608ZM24.4109 40.692H26.4269V41.8008H23.2589V36.7608H26.3909V37.8696H24.4109V38.7048H26.2109V39.7992H24.4109V40.692Z" fill="white"/>
            </g>
        </g>
    </g>
    <defs>
        <filter id="filter0_d_5548_1794" x="6.39902" y="9.2" width="47.2" height="43.2" filterUnits="userSpaceOnUse" color-interpolation-filters="sRGB">
            <feFlood flood-opacity="0" result="BackgroundImageFix"/>
            <feColorMatrix in="SourceAlpha" type="matrix" values="0 0 0 0 0 0 0 0 0 0 0 0 0 0 0 0 0 0 127 0" result="hardAlpha"/>
            <feOffset dy="0.8"/>
            <feGaussianBlur stdDeviation="0.8"/>
            <feComposite in2="hardAlpha" operator="out"/>
            <feColorMatrix type="matrix" values="0 0 0 0 0.0514635 0 0 0 0 0.0320313 0 0 0 0 0.170833 0 0 0 0.25 0"/>
            <feBlend mode="normal" in2="BackgroundImageFix" result="effect1_dropShadow_5548_1794"/>
            <feBlend mode="normal" in="SourceGraphic" in2="effect1_dropShadow_5548_1794" result="shape"/>
        </filter>
        <filter id="filter1_d_5548_1794" x="11.1687" y="36.2602" width="16.058" height="6.84219" filterUnits="userSpaceOnUse" color-interpolation-filters="sRGB">
            <feFlood flood-opacity="0" result="BackgroundImageFix"/>
            <feColorMatrix in="SourceAlpha" type="matrix" values="0 0 0 0 0 0 0 0 0 0 0 0 0 0 0 0 0 0 127 0" result="hardAlpha"/>
            <feOffset dy="0.4"/>
            <feGaussianBlur stdDeviation="0.4"/>
            <feComposite in2="hardAlpha" operator="out"/>
            <feColorMatrix type="matrix" values="0 0 0 0 0.135208 0 0 0 0 0.416714 0 0 0 0 0.7375 0 0 0 1 0"/>
            <feBlend mode="normal" in2="BackgroundImageFix" result="effect1_dropShadow_5548_1794"/>
            <feBlend mode="normal" in="SourceGraphic" in2="effect1_dropShadow_5548_1794" result="shape"/>
        </filter>
        <linearGradient id="paint0_linear_5548_1794" x1="55.154" y1="2.53861" x2="4.154" y2="56.7694" gradientUnits="userSpaceOnUse">
            <stop stop-color="#3734A3"/>
            <stop offset="0.0710074" stop-color="#121059"/>
            <stop offset="0.90219" stop-color="#121059"/>
            <stop offset="1" stop-color="#3D3B99"/>
        </linearGradient>
        <linearGradient id="paint1_linear_5548_1794" x1="30" y1="-1.3008e-08" x2="30" y2="60" gradientUnits="userSpaceOnUse">
            <stop offset="0.0104167" stop-color="#211F8A"/>
            <stop offset="0.993308" stop-color="#110F58"/>
        </linearGradient>
        <linearGradient id="paint2_linear_5548_1794" x1="30" y1="8.60428e-07" x2="30" y2="60" gradientUnits="userSpaceOnUse">
            <stop stop-color="#3532AC"/>
            <stop offset="0.193535" stop-color="#2D3195"/>
            <stop offset="0.807292" stop-color="#1C1A73"/>
            <stop offset="1" stop-color="#0A0944"/>
        </linearGradient>
        <linearGradient id="paint3_linear_5548_1794" x1="36.0008" y1="50" x2="36.1032" y2="46.0026" gradientUnits="userSpaceOnUse">
            <stop stop-color="#4B3AB5"/>
            <stop offset="1" stop-color="#6250D6"/>
        </linearGradient>
        <linearGradient id="paint4_linear_5548_1794" x1="47.1992" y1="22.3984" x2="47.1992" y2="34.9984" gradientUnits="userSpaceOnUse">
            <stop stop-color="#6F64E3"/>
            <stop offset="1" stop-color="#6148C7"/>
        </linearGradient>
        <linearGradient id="paint5_linear_5548_1794" x1="43.9988" y1="19.1992" x2="43.9988" y2="38.3992" gradientUnits="userSpaceOnUse">
            <stop stop-color="#624FD6"/>
            <stop offset="0.958333" stop-color="#4A39B5"/>
        </linearGradient>
        <linearGradient id="paint6_linear_5548_1794" x1="12.7998" y1="22.4004" x2="12.7998" y2="35.0004" gradientUnits="userSpaceOnUse">
            <stop stop-color="#6F64E3"/>
            <stop offset="1" stop-color="#6148C7"/>
        </linearGradient>
        <linearGradient id="paint7_linear_5548_1794" x1="15.9998" y1="19.2012" x2="15.9998" y2="38.4012" gradientUnits="userSpaceOnUse">
            <stop stop-color="#624FD6"/>
            <stop offset="0.958333" stop-color="#4A39B5"/>
        </linearGradient>
        <linearGradient id="paint8_linear_5548_1794" x1="19.599" y1="27.5996" x2="20.0181" y2="49.7917" gradientUnits="userSpaceOnUse">
            <stop stop-color="#65B5FF"/>
            <stop offset="1" stop-color="#146BD2"/>
        </linearGradient>
        <linearGradient id="paint9_linear_5548_1794" x1="19.599" y1="27.5996" x2="21.1815" y2="49.6862" gradientUnits="userSpaceOnUse">
            <stop stop-color="#83C3FF"/>
            <stop offset="0.661458" stop-color="#156DD4" stop-opacity="0"/>
        </linearGradient>
        <clipPath id="clip0_5548_1794">
            <rect width="60" height="60" rx="8" fill="white"/>
        </clipPath>
    </defs>
</svg>
