<svg width="12" height="10" viewBox="0 0 12 10" fill="none" xmlns="http://www.w3.org/2000/svg">
    <path d="M11.0031 0.00076294C10.7538 0.00944521 10.5174 0.124328 10.344 0.321016C7.99556 2.9012 6.2174 5.0417 4.00751 7.5058L1.58076 5.25593C1.48486 5.16642 1.37381 5.09848 1.25397 5.05602C1.13412 5.01356 1.00782 4.9974 0.882275 5.00846C0.75673 5.01951 0.6344 5.05756 0.52227 5.12045C0.410141 5.18333 0.310408 5.2698 0.228766 5.37494C0.147124 5.48008 0.085172 5.60183 0.046448 5.73322C0.00772403 5.86461 -0.00701368 6.00307 0.00307617 6.1407C0.013166 6.27834 0.0478858 6.41245 0.105253 6.53537C0.162621 6.65829 0.241512 6.76762 0.337423 6.85711L3.45325 9.74746C3.63704 9.91986 3.87348 10.0097 4.11517 9.99909C4.35686 9.98842 4.58595 9.87802 4.75651 9.68998C7.33289 6.85947 9.17043 4.5943 11.7072 1.80723C11.847 1.65926 11.9425 1.46822 11.981 1.25943C12.0195 1.05064 11.9992 0.833962 11.9229 0.638077C11.8465 0.442192 11.7177 0.276361 11.5535 0.162549C11.3892 0.0487379 11.1973 -0.00768733 11.0031 0.00076294Z" fill="#6A789D"/>
</svg>
